<?xml version="1.0" standalone="no"?>
<!DOCTYPE svg PUBLIC "-//W3C//DTD SVG 20010904//EN"
 "http://www.w3.org/TR/2001/REC-SVG-20010904/DTD/svg10.dtd">
<svg version="1.0" xmlns="http://www.w3.org/2000/svg"
 width="512.000000pt" height="512.000000pt" viewBox="0 0 512.000000 512.000000"
 preserveAspectRatio="xMidYMid meet">

<g transform="translate(0.000000,512.000000) scale(0.100000,-0.100000)"
fill="#000000" stroke="none">
<path d="M2955 3871 c-898 -467 -1755 -1308 -2396 -2351 -99 -162 -317 -589
-383 -752 -135 -334 -201 -639 -154 -707 25 -35 56 -53 94 -53 66 0 114 57
114 137 0 170 187 673 371 998 255 450 442 728 721 1069 526 644 1137 1149
1805 1492 93 48 119 73 123 117 4 51 -1 68 -31 98 -51 51 -87 45 -264 -48z"/>
</g>
</svg>
